<svg width="136" height="153" viewBox="0 0 136 153" fill="none" xmlns="http://www.w3.org/2000/svg">
<path d="M61.4277 1.76137C65.4946 -0.587126 70.5054 -0.587122 74.5723 1.76137L128.423 32.8578L91.1867 54.6653C85.4227 48.8776 77.4463 45.2957 68.6335 45.2957C59.4682 45.2957 51.2076 49.1699 45.3994 55.3703L7.26575 33.0374L61.4277 1.76137Z" fill="#1F87FE"/>
<path d="M38.1408 67.9656L0 45.6286V108.068L37.9988 85.8145C37.2187 83.055 36.8012 80.1431 36.8012 77.1338C36.8012 73.9466 37.2695 70.8689 38.1408 67.9656Z" fill="#1F87FE"/>
<path d="M45.0578 98.5268L7.86497 120.309L61.4277 151.239C65.4946 153.587 70.5053 153.587 74.5723 151.239L127.824 120.488L91.542 99.2398C85.7528 105.24 77.6289 108.972 68.6335 108.972C59.287 108.972 50.8813 104.943 45.0578 98.5268Z" fill="#1F87FE"/>
<path d="M98.9869 86.7536L135.998 108.429C135.999 108.345 136 108.261 136 108.176V45.2668L98.831 67.0347C99.8914 70.2079 100.466 73.6038 100.466 77.1338C100.466 80.4867 99.9476 83.7185 98.9869 86.7536Z" fill="#1F87FE"/>
</svg>
